<?xml version="1.0" encoding="utf-8"?>
<!-- Generator: Adobe Illustrator 12.0.0, SVG Export Plug-In . SVG Version: 6.00 Build 51448)  -->
<!DOCTYPE svg PUBLIC "-//W3C//DTD SVG 1.1//EN" "http://www.w3.org/Graphics/SVG/1.1/DTD/svg11.dtd" [
	<!ENTITY ns_svg "http://www.w3.org/2000/svg">
	<!ENTITY ns_xlink "http://www.w3.org/1999/xlink">
]>
<svg  version="1.1" id="Layer_1" xmlns="&ns_svg;" xmlns:xlink="&ns_xlink;" width="91.749" height="97.418"
	 viewBox="0 0 91.749 97.418" overflow="visible" enable-background="new 0 0 91.749 97.418" xml:space="preserve">
<g>
	<g>
		<path fill="#FFF100" stroke="#AEBE36" stroke-width="1.0402" d="M80.479,17.763c1.871,1.339,2.296,3.938,0.955,5.801
			L37.693,84.337c-1.345,1.863-3.947,2.287-5.81,0.948L13.283,71.939c-1.869-1.339-2.29-3.936-0.951-5.802L56.075,5.366
			c1.344-1.863,3.944-2.288,5.808-0.946L80.479,17.763z"/>
		<path fill="#FFF100" stroke="#AEBE36" stroke-width="1.0402" d="M9.796,64.316C7.453,67.574,8.2,72.13,11.459,74.47l18.598,13.348
			c3.263,2.338,7.823,1.594,10.17-1.664l43.746-60.77c2.338-3.258,1.593-7.813-1.67-10.154L63.707,1.884
			c-3.263-2.34-7.825-1.596-10.169,1.662L9.796,64.316z"/>
		<path fill="#FFF100" stroke="#AEBE36" stroke-width="1.0402" d="M80.479,17.763c1.871,1.339,2.296,3.938,0.955,5.801
			L37.693,84.337c-1.345,1.863-3.947,2.287-5.81,0.948L13.283,71.939c-1.869-1.339-2.29-3.936-0.951-5.802L56.075,5.366
			c1.344-1.863,3.944-2.288,5.808-0.946L80.479,17.763z"/>
		<g>
			<path d="M27.567,51.646c0.051-0.072,0.149-0.08,0.226-0.039l8.252,3.814c0.124,0.063,0.203,0.19,0.12,0.304l-1.18,1.643
				c-0.044,0.061-0.128,0.094-0.195,0.058l-1.67-0.888c-0.057-0.03-0.117-0.008-0.153,0.045l-0.395,0.543
				c-0.03,0.041-0.017,0.109,0.039,0.162l1.35,1.263c0.065,0.063,0.054,0.162,0.018,0.215l-1.204,1.67
				c-0.066,0.094-0.174,0.094-0.259,0l-6.338-6.606c-0.042-0.05-0.076-0.151-0.034-0.209L27.567,51.646z M30.75,55.281
				c-0.156-0.085-0.262-0.129-0.284-0.102c-0.022,0.033,0.034,0.104,0.181,0.242l0.871,0.821c0.042,0.047,0.107,0.063,0.145,0.012
				c0.233-0.325,0.255-0.354,0.156-0.408L30.75,55.281z"/>
			<path d="M37.967,53.226c-0.061,0.08-0.139,0.086-0.21,0.033l-7.334-5.262c-0.082-0.058-0.115-0.16-0.058-0.242l1.307-1.811
				c1.157-1.612,2.868-1.827,4.713-0.501l1.888,1.351c1.64,1.18,2.186,2.968,1.059,4.539L37.967,53.226z M34.333,47.055
				c-0.102-0.074-0.206-0.099-0.298-0.08c-0.059,0.022-0.149,0.08-0.185,0.132c-0.029,0.039-0.015,0.083,0.047,0.124l3.366,2.417
				c0.061,0.044,0.098,0.038,0.127-0.003c0.041-0.058,0.19-0.265-0.105-0.477L34.333,47.055z"/>
			<path d="M42.887,46.391c-0.032,0.039-0.11,0.041-0.152,0.014l-7.413-5.322c-0.051-0.036-0.079-0.102-0.042-0.154l1.954-2.712
				c0.038-0.052,0.105-0.063,0.174-0.033l2.239,1.146c0.079,0.044,0.12,0.044,0.135,0.022c0.017-0.022-0.01-0.069-0.083-0.121
				l-1.822-1.676c-0.055-0.052-0.073-0.129-0.029-0.19l2.023-2.814c0.052-0.075,0.12-0.085,0.194-0.036l7.396,5.309
				c0.058,0.041,0.063,0.124,0.017,0.182l-1.319,1.833c-0.042,0.063-0.122,0.085-0.188,0.033l-3.178-2.28
				c-0.079-0.058-0.122-0.066-0.131-0.052c-0.017,0.025,0.01,0.075,0.152,0.221l2.733,2.762c0.057,0.052,0.036,0.118,0,0.171
				l-0.824,1.141c-0.037,0.053-0.105,0.063-0.189,0.033l-3.241-1.612c-0.189-0.096-0.252-0.08-0.273-0.049
				c-0.021,0.033,0.017,0.091,0.096,0.148l2.973,2.131c0.073,0.052,0.09,0.11,0.037,0.182L42.887,46.391z"/>
			<path d="M49.406,37.334c-0.047,0.069-0.169,0.08-0.249,0.022l-7.356-5.275c-0.052-0.036-0.073-0.113-0.036-0.166l1.248-1.733
				c0.052-0.069,0.125-0.088,0.189-0.047l7.377,5.292c0.059,0.044,0.094,0.143,0.042,0.217L49.406,37.334z"/>
			<path d="M53.444,31.725c-0.047,0.069-0.163,0.097-0.243,0.039l-5.297-3.804c-0.068-0.049-0.163-0.024-0.215,0.05l-0.731,1.009
				c-0.042,0.063-0.18,0.077-0.235,0.033l-1.805-1.295c-0.063-0.047-0.079-0.105-0.038-0.166l3.124-4.335
				c0.047-0.069,0.133-0.102,0.215-0.044l1.783,1.282c0.086,0.058,0.1,0.163,0.042,0.245l-0.729,1.012
				c-0.053,0.069-0.036,0.157,0.052,0.22l5.289,3.792c0.071,0.052,0.088,0.157,0.03,0.24L53.444,31.725z"/>
			<path d="M44.865,58.132c-1.573-1.13-1.625-2.66-0.818-3.784c0.813-1.122,2.276-1.561,3.853-0.431l3,2.153
				c1.563,1.124,1.609,2.665,0.809,3.772c-0.798,1.116-2.266,1.565-3.842,0.441L44.865,58.132z M49.237,58.319
				c0.152,0.104,0.304,0.138,0.384,0.027c0.077-0.116,0.003-0.245-0.148-0.351l-2.945-2.113c-0.13-0.094-0.31-0.146-0.39-0.033
				c-0.083,0.11,0.017,0.253,0.16,0.358L49.237,58.319z"/>
			<path d="M47.421,49.981c-0.069-0.052-0.092-0.146-0.05-0.209l1.233-1.709c0.05-0.072,0.127-0.094,0.221-0.055l2.725,1.031
				c0.094,0.036,0.157,0.036,0.171,0.017c0.022-0.033,0-0.091-0.088-0.157l-2.267-1.624c-0.066-0.046-0.088-0.143-0.041-0.215
				l1.096-1.519c0.058-0.083,0.163-0.083,0.237-0.033l7.332,5.264c0.074,0.053,0.104,0.135,0.052,0.21l-1.363,1.891
				c-0.027,0.041-0.11,0.071-0.185,0.041l-2.146-0.868c-0.113-0.053-0.182-0.041-0.204-0.011c-0.024,0.033,0,0.082,0.105,0.154
				l1.794,1.287c0.074,0.05,0.088,0.157,0.036,0.229l-1.107,1.538c-0.047,0.061-0.135,0.058-0.213,0L47.421,49.981z"/>
			<path d="M52.395,43.075c-0.058-0.041-0.086-0.157-0.039-0.226l2.593-3.597c0.041-0.061,0.121-0.063,0.182-0.022l1.827,1.309
				c0.062,0.047,0.062,0.127,0.02,0.19l-1.217,1.687c-0.03,0.042-0.02,0.094,0.021,0.121l0.566,0.408
				c0.041,0.03,0.099,0.011,0.121-0.017l0.577-0.802c0.024-0.041,0.083-0.049,0.121-0.022l1.844,1.326
				c0.053,0.036,0.063,0.105,0.039,0.146L58.457,44.4c-0.024,0.039-0.021,0.091,0.03,0.127l0.6,0.43
				c0.035,0.028,0.094,0.02,0.115-0.011l1.259-1.75c0.053-0.069,0.13-0.075,0.183-0.039l1.883,1.35
				c0.063,0.047,0.08,0.132,0.038,0.196l-2.611,3.625c-0.044,0.061-0.144,0.066-0.215,0.017L52.395,43.075z"/>
		</g>
		<g>
			<path d="M75.444,21.15c-0.597,0.835-1.599,1.064-2.432,0.463c-0.84-0.601-0.955-1.629-0.354-2.464l1.449-2.015
				c0.618-0.854,1.634-1.069,2.465-0.474c0.839,0.601,0.938,1.618,0.323,2.475L75.444,21.15z M75.59,18.239
				c0.063-0.088,0.052-0.165-0.009-0.212c-0.063-0.042-0.144-0.031-0.207,0.058l-1.41,1.959c-0.061,0.088-0.058,0.166,0.011,0.212
				c0.069,0.047,0.141,0.03,0.199-0.052L75.59,18.239z"/>
			<path d="M69.603,17.187c0.392-0.548,0.963-0.706,1.312-0.64c0.061,0.014,0.104,0.011,0.112-0.002
				c0.006-0.011-0.008-0.055-0.052-0.113c-0.183-0.309-0.271-0.907,0.144-1.482c0.676-0.938,1.667-1.003,2.459-0.438
				c0.792,0.568,1.032,1.521,0.356,2.458c-0.42,0.582-0.892,0.7-1.295,0.653c-0.1-0.011-0.138-0.005-0.144,0
				c-0.008,0.014,0,0.041,0.044,0.124c0.188,0.386,0.142,0.849-0.268,1.419c-0.558,0.777-1.463,0.871-2.261,0.297
				C69.219,18.893,69.02,17.989,69.603,17.187z M70.909,17.983c-0.053,0.075-0.033,0.171,0.02,0.209
				c0.052,0.039,0.144,0.028,0.198-0.049l0.301-0.417c0.036-0.055,0.014-0.11-0.052-0.16c-0.059-0.042-0.133-0.052-0.169,0
				L70.909,17.983z M72.051,16.396c-0.058,0.074-0.036,0.174,0.02,0.209c0.053,0.039,0.138,0.03,0.201-0.05l0.32-0.449
				c0.056-0.08,0.041-0.171-0.017-0.215c-0.053-0.039-0.146-0.022-0.204,0.058L72.051,16.396z"/>
			<path d="M70.078,13.411c-0.014,0.022-0.008,0.044,0.011,0.058l1.207,0.865c0.021,0.014,0.033,0.055,0.017,0.083l-0.771,1.069
				c-0.022,0.028-0.058,0.05-0.08,0.066l-3.467,1.665c-0.03,0.017-0.083,0.02-0.11,0l-0.991-0.711
				c-0.03-0.02-0.036-0.066-0.014-0.091l1.918-2.671c0.036-0.052,0.053-0.127-0.041-0.193c-0.11-0.077-0.185-0.154-0.144-0.215
				l0.739-1.031c0.039-0.047,0.127,0.011,0.202,0.063c0.077,0.053,0.182,0.069,0.218,0.022l0.599-0.83
				c0.017-0.027,0.053-0.03,0.083-0.008l1.251,0.896c0.019,0.014,0.03,0.052,0.008,0.08L70.078,13.411z M69.5,14.852
				c0.039-0.022,0.012-0.042-0.24-0.218c-0.021-0.017-0.047-0.017-0.063,0l-0.328,0.463c-0.022,0.028-0.017,0.05-0.006,0.061
				c0.015,0.008,0.036,0.005,0.072-0.014L69.5,14.852z"/>
			<path d="M64.885,10.842c0.74-1.022,1.842-1.246,2.62-0.686c0.853,0.609,1.052,1.604,0.345,2.583
				c-0.022,0.033-0.063,0.044-0.088,0.024l-1.193-0.785c-0.024-0.017-0.035-0.063-0.008-0.097l0.213-0.342
				c0.038-0.066,0.017-0.121-0.025-0.151c-0.068-0.047-0.135-0.036-0.198,0.052l-0.804,1.116c-0.036,0.052-0.041,0.102-0.021,0.116
				c0.021,0.014,0.049,0.017,0.121,0.006c0.168-0.031,0.384-0.042,0.646,0.146c0.491,0.355,0.561,1.083-0.021,1.888
				c-0.618,0.863-1.698,0.992-2.448,0.452c-1.024-0.736-0.856-1.932-0.1-2.982L64.885,10.842z M65.343,13.557
				c0.064-0.088,0.059-0.163-0.011-0.212c-0.063-0.044-0.135-0.025-0.198,0.061l-0.169,0.234c-0.041,0.061-0.03,0.13,0.036,0.179
				c0.047,0.03,0.127,0.036,0.168-0.022L65.343,13.557z"/>
			<path d="M61.843,8.659c0.74-1.022,1.842-1.246,2.62-0.687c0.853,0.609,1.052,1.604,0.345,2.583
				c-0.021,0.033-0.063,0.044-0.088,0.025l-1.192-0.786c-0.025-0.019-0.036-0.063-0.009-0.096l0.213-0.342
				c0.038-0.066,0.017-0.122-0.025-0.149c-0.068-0.05-0.135-0.039-0.198,0.05l-0.804,1.116c-0.035,0.052-0.041,0.102-0.021,0.116
				c0.021,0.014,0.05,0.017,0.121,0.005c0.168-0.027,0.384-0.042,0.646,0.146c0.492,0.355,0.561,1.083-0.021,1.888
				c-0.618,0.862-1.697,0.992-2.448,0.455c-1.024-0.736-0.856-1.935-0.1-2.985L61.843,8.659z M62.302,11.371
				c0.063-0.085,0.058-0.163-0.012-0.209c-0.063-0.044-0.135-0.025-0.198,0.063l-0.169,0.231c-0.041,0.061-0.03,0.129,0.036,0.176
				c0.047,0.036,0.127,0.039,0.169-0.019L62.302,11.371z"/>
		</g>
		<g>
			<path d="M19.474,67.541c0.6-0.838,1.598-1.062,2.436-0.466c0.839,0.604,0.954,1.629,0.351,2.467l-1.449,2.018
				c-0.616,0.852-1.634,1.066-2.465,0.471c-0.838-0.604-0.939-1.617-0.325-2.472L19.474,67.541z M19.329,70.454
				c-0.062,0.083-0.057,0.163,0.012,0.21c0.06,0.041,0.14,0.03,0.202-0.059l1.411-1.959c0.063-0.089,0.057-0.163-0.008-0.21
				c-0.068-0.052-0.142-0.03-0.2,0.047L19.329,70.454z"/>
			<path d="M25.32,71.507c-0.395,0.543-0.965,0.706-1.315,0.637c-0.061-0.014-0.102-0.008-0.111,0
				c-0.008,0.011,0.009,0.058,0.049,0.116c0.185,0.309,0.272,0.906-0.142,1.482c-0.675,0.938-1.668,1.006-2.459,0.436
				c-0.79-0.567-1.029-1.519-0.354-2.456c0.418-0.581,0.889-0.697,1.294-0.655c0.102,0.017,0.137,0.011,0.141,0.005
				c0.011-0.017-0.001-0.041-0.042-0.127c-0.189-0.386-0.142-0.846,0.269-1.419c0.558-0.774,1.46-0.868,2.258-0.298
				C25.703,69.798,25.899,70.699,25.32,71.507z M22.872,72.298c0.054-0.08,0.03-0.174-0.023-0.209
				c-0.054-0.045-0.141-0.033-0.197,0.047l-0.323,0.449c-0.058,0.079-0.042,0.173,0.017,0.215c0.053,0.035,0.148,0.021,0.204-0.058
				L22.872,72.298z M24.013,70.711c0.054-0.075,0.031-0.174-0.022-0.21c-0.054-0.041-0.141-0.033-0.199,0.047l-0.299,0.419
				c-0.037,0.053-0.018,0.11,0.05,0.157c0.059,0.041,0.134,0.052,0.172,0L24.013,70.711z"/>
			<path d="M24.839,75.283c0.017-0.022,0.011-0.05-0.008-0.063l-1.207-0.865c-0.021-0.012-0.032-0.053-0.014-0.077l0.771-1.075
				c0.018-0.025,0.055-0.047,0.076-0.063l3.467-1.665c0.03-0.014,0.084-0.019,0.11,0l0.992,0.714
				c0.026,0.014,0.033,0.061,0.015,0.089l-1.922,2.67c-0.037,0.053-0.05,0.127,0.044,0.193c0.107,0.08,0.183,0.151,0.142,0.215
				l-0.744,1.031c-0.032,0.049-0.124-0.009-0.197-0.062c-0.075-0.052-0.184-0.074-0.218-0.027l-0.596,0.833
				c-0.019,0.027-0.054,0.032-0.087,0.005l-1.246-0.89c-0.021-0.017-0.035-0.059-0.014-0.083L24.839,75.283z M25.42,73.836
				c-0.039,0.027-0.011,0.041,0.237,0.221c0.019,0.017,0.05,0.017,0.063,0l0.333-0.461c0.02-0.032,0.014-0.052,0.001-0.063
				c-0.014-0.012-0.036-0.006-0.07,0.011L25.42,73.836z"/>
			<path d="M30.031,77.849c-0.735,1.02-1.841,1.246-2.618,0.684c-0.85-0.606-1.05-1.602-0.346-2.58
				c0.025-0.032,0.063-0.041,0.091-0.027l1.193,0.786c0.026,0.021,0.034,0.063,0.011,0.099l-0.217,0.342
				c-0.036,0.069-0.015,0.121,0.025,0.151c0.068,0.047,0.137,0.036,0.2-0.052l0.803-1.116c0.037-0.053,0.042-0.1,0.022-0.116
				c-0.021-0.014-0.049-0.014-0.119-0.003c-0.172,0.025-0.385,0.042-0.646-0.148c-0.495-0.355-0.562-1.083,0.018-1.891
				c0.62-0.857,1.699-0.989,2.449-0.449c1.025,0.733,0.855,1.932,0.099,2.979L30.031,77.849z M29.577,75.134
				c-0.063,0.091-0.057,0.163,0.01,0.21c0.061,0.047,0.135,0.027,0.199-0.059l0.167-0.233c0.044-0.059,0.032-0.133-0.034-0.18
				c-0.048-0.03-0.126-0.036-0.168,0.022L29.577,75.134z"/>
			<path d="M33.073,80.031c-0.735,1.021-1.841,1.246-2.618,0.687c-0.85-0.609-1.05-1.604-0.346-2.582
				c0.024-0.03,0.063-0.047,0.091-0.025l1.192,0.786c0.026,0.019,0.035,0.061,0.011,0.099l-0.217,0.339
				c-0.037,0.069-0.015,0.122,0.025,0.152c0.068,0.047,0.137,0.038,0.2-0.053l0.803-1.113c0.037-0.053,0.042-0.104,0.022-0.116
				c-0.021-0.017-0.05-0.017-0.119-0.005c-0.172,0.024-0.385,0.035-0.646-0.146c-0.495-0.358-0.562-1.086,0.018-1.891
				c0.62-0.865,1.699-0.989,2.448-0.452c1.025,0.733,0.856,1.933,0.1,2.979L33.073,80.031z M32.619,77.319
				c-0.063,0.089-0.057,0.163,0.01,0.21c0.061,0.041,0.135,0.024,0.199-0.063l0.167-0.231c0.044-0.063,0.032-0.13-0.035-0.177
				c-0.048-0.033-0.125-0.038-0.168,0.02L32.619,77.319z"/>
		</g>
		<line fill="none" stroke="#AEBE36" stroke-width="1.0402" x1="16.177" y1="60.797" x2="41.319" y2="78.844"/>
		<line fill="none" stroke="#AEBE36" stroke-width="1.0402" x1="52.625" y1="10.156" x2="77.774" y2="28.203"/>
	</g>
	<g>
		<path fill="#FFF100" stroke="#AEBE36" stroke-width="1.0402" d="M87.523,49.298c1.173,1.973,0.524,4.52-1.452,5.694L21.622,93.195
			c-1.979,1.174-4.534,0.523-5.707-1.45L4.222,72.083c-1.174-1.977-0.519-4.525,1.456-5.694l64.45-38.208
			c1.977-1.171,4.529-0.518,5.705,1.455L87.523,49.298z"/>
		<path fill="#FFF100" stroke="#AEBE36" stroke-width="1.0402" d="M4.084,63.704c-3.453,2.048-4.595,6.519-2.546,9.975l11.69,19.659
			c2.054,3.451,6.529,4.592,9.987,2.539l64.449-38.2c3.456-2.051,4.596-6.521,2.545-9.975L78.519,28.045
			c-2.051-3.453-6.531-4.591-9.987-2.546L4.084,63.704z"/>
		<path fill="#FFF100" stroke="#AEBE36" stroke-width="1.0402" d="M87.523,49.298c1.173,1.973,0.524,4.52-1.452,5.694L21.622,93.195
			c-1.979,1.174-4.534,0.523-5.707-1.45L4.222,72.083c-1.174-1.977-0.519-4.525,1.456-5.694l64.45-38.208
			c1.977-1.171,4.529-0.518,5.705,1.455L87.523,49.298z"/>
		<g>
			<path d="M25.449,59.201c0.077-0.047,0.168-0.017,0.222,0.052l6.031,6.797c0.091,0.104,0.109,0.257-0.009,0.325l-1.739,1.031
				c-0.063,0.035-0.156,0.035-0.203-0.028l-1.172-1.475c-0.043-0.052-0.106-0.058-0.157-0.027l-0.583,0.348
				c-0.044,0.024-0.061,0.094-0.03,0.16l0.731,1.697c0.033,0.083-0.015,0.174-0.069,0.204l-1.773,1.047
				c-0.097,0.059-0.194,0.017-0.237-0.104l-3.158-8.582c-0.021-0.063-0.011-0.169,0.052-0.204L25.449,59.201z M26.908,63.798
				c-0.109-0.138-0.189-0.221-0.221-0.198c-0.032,0.014-0.01,0.104,0.07,0.292l0.468,1.1c0.021,0.059,0.073,0.1,0.127,0.069
				c0.345-0.204,0.377-0.221,0.309-0.314L26.908,63.798z"/>
			<path d="M34.345,64.804c-0.087,0.053-0.162,0.02-0.206-0.052l-4.611-7.756c-0.051-0.086-0.04-0.19,0.046-0.242l1.922-1.145
				c1.708-1.009,3.361-0.526,4.521,1.428l1.186,1.996c1.032,1.738,0.817,3.591-0.85,4.575L34.345,64.804z M33.49,57.69
				c-0.063-0.104-0.148-0.171-0.242-0.188c-0.062-0.005-0.168,0.017-0.222,0.047c-0.043,0.027-0.045,0.069-0.008,0.138l2.119,3.556
				c0.037,0.066,0.073,0.071,0.116,0.047c0.063-0.039,0.279-0.163,0.094-0.477L33.49,57.69z"/>
			<path d="M41.597,60.505c-0.042,0.024-0.12-0.006-0.146-0.047l-4.659-7.842c-0.03-0.055-0.029-0.127,0.023-0.159l2.879-1.704
				c0.053-0.032,0.12-0.014,0.172,0.042l1.59,1.945c0.052,0.069,0.094,0.086,0.114,0.074c0.021-0.011,0.017-0.068-0.026-0.143
				l-0.997-2.266c-0.032-0.069-0.015-0.149,0.047-0.19l2.985-1.77c0.079-0.041,0.146-0.024,0.188,0.047l4.65,7.819
				c0.041,0.066,0.011,0.141-0.053,0.177l-1.949,1.154c-0.063,0.039-0.141,0.027-0.185-0.047l-1.996-3.359
				c-0.052-0.083-0.079-0.107-0.101-0.1c-0.026,0.014-0.021,0.069,0.048,0.262l1.399,3.627c0.032,0.069-0.01,0.122-0.067,0.152
				l-1.212,0.716c-0.053,0.039-0.12,0.017-0.189-0.047l-2.317-2.772c-0.142-0.165-0.2-0.168-0.232-0.151
				c-0.036,0.022-0.026,0.088,0.026,0.174l1.867,3.139c0.047,0.077,0.043,0.141-0.036,0.183L41.597,60.505z"/>
			<path d="M51.197,54.811c-0.071,0.047-0.182,0.008-0.234-0.077l-4.626-7.772c-0.027-0.055-0.019-0.135,0.033-0.168l1.844-1.089
				c0.071-0.044,0.151-0.033,0.188,0.03l4.638,7.797c0.038,0.063,0.033,0.174-0.047,0.215L51.197,54.811z"/>
			<path d="M57.151,51.285c-0.074,0.041-0.188,0.025-0.24-0.063l-3.326-5.598c-0.047-0.071-0.141-0.088-0.221-0.047l-1.073,0.64
				c-0.063,0.036-0.19-0.003-0.227-0.069l-1.138-1.907c-0.038-0.066-0.027-0.129,0.036-0.166l4.593-2.723
				c0.075-0.047,0.169-0.041,0.216,0.044l1.129,1.888c0.047,0.083,0.02,0.188-0.063,0.237l-1.076,0.636
				c-0.072,0.044-0.094,0.132-0.036,0.226l3.32,5.587c0.047,0.08,0.017,0.182-0.068,0.231L57.151,51.285z"/>
			<path d="M38.703,72.056c-0.991-1.665-0.424-3.084,0.765-3.79c1.191-0.708,2.712-0.523,3.703,1.142l1.883,3.172
				c0.985,1.656,0.41,3.078-0.771,3.781c-1.18,0.703-2.706,0.529-3.692-1.13L38.703,72.056z M42.63,73.974
				c0.094,0.16,0.22,0.245,0.335,0.177c0.12-0.069,0.105-0.221,0.011-0.384l-1.853-3.108c-0.084-0.138-0.225-0.257-0.346-0.185
				c-0.115,0.068-0.088,0.242,0,0.389L42.63,73.974z"/>
			<path d="M44.309,65.608c-0.042-0.071-0.026-0.17,0.042-0.209l1.815-1.078c0.072-0.041,0.152-0.032,0.226,0.042l2.079,2.031
				c0.074,0.074,0.13,0.094,0.151,0.085c0.033-0.021,0.039-0.085-0.021-0.179l-1.425-2.393c-0.039-0.074-0.024-0.168,0.05-0.215
				l1.612-0.954c0.091-0.052,0.185-0.011,0.231,0.063l4.609,7.756c0.047,0.077,0.042,0.168-0.035,0.21l-2.01,1.193
				c-0.041,0.021-0.13,0.021-0.183-0.036l-1.617-1.656c-0.088-0.094-0.157-0.11-0.188-0.094c-0.03,0.022-0.025,0.08,0.036,0.185
				l1.129,1.899c0.047,0.074,0.017,0.179-0.059,0.22l-1.631,0.971c-0.063,0.041-0.146,0-0.199-0.086L44.309,65.608z"/>
			<path d="M51.639,61.268c-0.042-0.063-0.022-0.176,0.058-0.22l3.812-2.261c0.063-0.038,0.139-0.011,0.18,0.053l1.143,1.932
				c0.042,0.061,0.012,0.136-0.052,0.177l-1.795,1.063c-0.041,0.025-0.058,0.075-0.03,0.116l0.356,0.601
				c0.027,0.042,0.088,0.053,0.121,0.033l0.851-0.504c0.041-0.025,0.094-0.012,0.118,0.032l1.16,1.946
				c0.032,0.058,0.017,0.127-0.025,0.154l-0.872,0.513c-0.041,0.024-0.058,0.077-0.025,0.13l0.379,0.634
				c0.024,0.041,0.077,0.058,0.107,0.035l1.857-1.1c0.075-0.047,0.146-0.014,0.18,0.039l1.189,1.995
				c0.036,0.061,0.017,0.146-0.047,0.188l-3.845,2.279c-0.069,0.036-0.157,0.003-0.204-0.068L51.639,61.268z"/>
		</g>
		<g>
			<path d="M81.549,50.39c-0.886,0.523-1.894,0.336-2.418-0.549c-0.524-0.884-0.221-1.876,0.665-2.4l2.14-1.265
				c0.908-0.537,1.927-0.325,2.445,0.551c0.53,0.885,0.216,1.86-0.692,2.395L81.549,50.39z M82.85,47.779
				c0.094-0.055,0.115-0.129,0.074-0.195c-0.039-0.063-0.116-0.085-0.21-0.033l-2.078,1.235c-0.094,0.055-0.116,0.126-0.072,0.198
				c0.042,0.072,0.113,0.08,0.199,0.03L82.85,47.779z"/>
			<path d="M77.785,44.42c0.579-0.345,1.162-0.262,1.457-0.061c0.053,0.041,0.089,0.052,0.105,0.044
				c0.014-0.005,0.014-0.055,0-0.124c-0.047-0.355,0.115-0.937,0.723-1.301c0.997-0.59,1.936-0.254,2.43,0.584
				c0.496,0.833,0.334,1.8-0.657,2.393c-0.618,0.366-1.096,0.284-1.452,0.08c-0.088-0.052-0.121-0.061-0.127-0.058
				c-0.014,0.008-0.014,0.042-0.011,0.132c0.017,0.43-0.21,0.835-0.817,1.193c-0.822,0.488-1.684,0.212-2.187-0.631
				C76.75,45.828,76.929,44.927,77.785,44.42z M78.66,45.671c-0.08,0.047-0.094,0.146-0.063,0.201
				c0.036,0.058,0.116,0.085,0.204,0.036l0.441-0.262c0.053-0.033,0.059-0.094,0.014-0.163c-0.035-0.063-0.099-0.105-0.157-0.072
				L78.66,45.671z M80.343,44.676c-0.08,0.047-0.1,0.143-0.063,0.198c0.03,0.058,0.116,0.085,0.204,0.036l0.473-0.284
				c0.082-0.05,0.11-0.138,0.074-0.204c-0.039-0.055-0.127-0.074-0.21-0.027L80.343,44.676z"/>
			<path d="M79.733,41.154c-0.019,0.014-0.024,0.036-0.008,0.055l0.754,1.276c0.017,0.022,0.011,0.066-0.02,0.083l-1.135,0.672
				c-0.024,0.014-0.071,0.022-0.1,0.027l-3.845,0.141c-0.03,0-0.083-0.014-0.1-0.047l-0.624-1.047
				c-0.017-0.027-0.005-0.071,0.022-0.088l2.832-1.682c0.058-0.03,0.1-0.093,0.036-0.193c-0.063-0.113-0.105-0.215-0.042-0.25
				l1.097-0.65c0.047-0.028,0.11,0.058,0.157,0.135c0.047,0.08,0.135,0.141,0.188,0.11l0.878-0.523
				c0.03-0.014,0.061-0.006,0.082,0.03l0.787,1.317c0.011,0.019,0.006,0.061-0.022,0.077L79.733,41.154z M78.626,42.243
				c0.044-0.006,0.027-0.033-0.13-0.298c-0.011-0.02-0.036-0.033-0.058-0.022l-0.489,0.289c-0.03,0.02-0.035,0.042-0.024,0.055
				c0.006,0.017,0.024,0.022,0.069,0.017L78.626,42.243z"/>
			<path d="M76.009,36.722c1.082-0.643,2.184-0.403,2.675,0.418c0.536,0.901,0.315,1.891-0.718,2.503
				c-0.035,0.025-0.077,0.019-0.094-0.008l-0.775-1.199c-0.022-0.027-0.011-0.069,0.024-0.091l0.337-0.229
				c0.063-0.047,0.063-0.105,0.036-0.149c-0.041-0.069-0.11-0.088-0.198-0.03l-1.188,0.703c-0.055,0.03-0.077,0.072-0.066,0.097
				c0.012,0.019,0.036,0.033,0.105,0.049c0.171,0.044,0.372,0.119,0.535,0.392c0.31,0.526,0.077,1.221-0.772,1.723
				c-0.917,0.545-1.955,0.231-2.427-0.56c-0.646-1.083-0.011-2.117,1.104-2.775L76.009,36.722z M75.339,39.393
				c0.088-0.058,0.115-0.124,0.074-0.198c-0.039-0.063-0.116-0.077-0.204-0.022l-0.249,0.148c-0.066,0.036-0.083,0.105-0.041,0.177
				c0.033,0.047,0.1,0.085,0.163,0.044L75.339,39.393z"/>
			<path d="M74.097,33.508c1.084-0.642,2.186-0.405,2.675,0.419c0.535,0.896,0.319,1.888-0.718,2.502
				c-0.039,0.02-0.075,0.014-0.097-0.011l-0.776-1.199c-0.017-0.027-0.005-0.072,0.033-0.091l0.329-0.229
				c0.063-0.046,0.063-0.104,0.041-0.146c-0.041-0.071-0.107-0.091-0.204-0.036l-1.185,0.703c-0.058,0.033-0.08,0.077-0.068,0.097
				c0.017,0.022,0.041,0.036,0.11,0.052c0.168,0.044,0.367,0.119,0.529,0.394c0.315,0.524,0.083,1.216-0.77,1.723
				c-0.914,0.543-1.957,0.229-2.43-0.562c-0.646-1.086-0.005-2.114,1.107-2.775L74.097,33.508z M73.426,36.176
				c0.094-0.055,0.113-0.127,0.071-0.199c-0.036-0.061-0.11-0.077-0.204-0.019l-0.246,0.146c-0.063,0.036-0.08,0.105-0.035,0.176
				c0.024,0.05,0.094,0.083,0.157,0.047L73.426,36.176z"/>
		</g>
		<g>
			<path d="M11.66,70.525c0.886-0.523,1.892-0.333,2.419,0.552c0.526,0.885,0.219,1.874-0.667,2.397l-2.138,1.268
				c-0.907,0.541-1.925,0.331-2.447-0.551c-0.527-0.885-0.213-1.857,0.694-2.397L11.66,70.525z M10.359,73.139
				c-0.091,0.053-0.116,0.127-0.074,0.201c0.039,0.061,0.117,0.077,0.209,0.024l2.079-1.229c0.092-0.059,0.116-0.133,0.076-0.201
				c-0.041-0.066-0.117-0.083-0.203-0.03L10.359,73.139z"/>
			<path d="M15.427,76.495c-0.581,0.348-1.166,0.263-1.46,0.063c-0.05-0.035-0.09-0.052-0.102-0.047
				c-0.015,0.012-0.017,0.059-0.001,0.127c0.045,0.355-0.115,0.938-0.726,1.304c-0.994,0.587-1.931,0.251-2.428-0.587
				c-0.497-0.832-0.334-1.803,0.66-2.393c0.617-0.366,1.096-0.283,1.449-0.08c0.088,0.053,0.122,0.059,0.128,0.059
				c0.015-0.012,0.017-0.042,0.01-0.13c-0.017-0.43,0.211-0.838,0.815-1.196c0.824-0.485,1.688-0.215,2.189,0.629
				C16.462,75.087,16.28,75.994,15.427,76.495z M12.869,76.245c0.079-0.047,0.097-0.146,0.062-0.204
				c-0.033-0.058-0.116-0.083-0.203-0.03l-0.475,0.281c-0.084,0.047-0.109,0.143-0.07,0.203c0.033,0.059,0.125,0.08,0.21,0.028
				L12.869,76.245z M14.55,75.244c0.08-0.047,0.098-0.141,0.063-0.198c-0.035-0.058-0.116-0.083-0.203-0.036l-0.439,0.262
				c-0.057,0.036-0.061,0.094-0.019,0.163c0.039,0.066,0.101,0.104,0.157,0.071L14.55,75.244z"/>
			<path d="M13.475,79.765c0.022-0.012,0.026-0.036,0.014-0.059l-0.759-1.272c-0.012-0.02-0.007-0.062,0.021-0.083l1.136-0.67
				c0.028-0.017,0.072-0.027,0.097-0.033l3.845-0.135c0.033-0.006,0.084,0.017,0.102,0.041l0.624,1.048
				c0.015,0.033,0.004,0.074-0.024,0.088l-2.832,1.682c-0.057,0.032-0.097,0.096-0.037,0.195c0.068,0.113,0.106,0.215,0.044,0.251
				l-1.094,0.647c-0.05,0.033-0.112-0.055-0.157-0.135c-0.047-0.077-0.14-0.136-0.19-0.11l-0.878,0.523
				c-0.03,0.017-0.063,0.006-0.084-0.024l-0.783-1.32c-0.013-0.022-0.01-0.063,0.02-0.08L13.475,79.765z M14.583,78.676
				c-0.042,0.006-0.026,0.036,0.13,0.298c0.014,0.021,0.04,0.03,0.06,0.021l0.488-0.289c0.031-0.02,0.035-0.041,0.026-0.058
				c-0.007-0.012-0.029-0.014-0.067-0.014L14.583,78.676z"/>
			<path d="M17.201,84.193c-1.083,0.645-2.185,0.405-2.674-0.419c-0.534-0.896-0.318-1.891,0.719-2.503
				c0.036-0.019,0.076-0.016,0.093,0.012l0.778,1.198c0.017,0.028,0.007,0.075-0.029,0.094l-0.335,0.227
				c-0.061,0.047-0.063,0.104-0.038,0.146c0.043,0.075,0.11,0.089,0.202,0.036l1.184-0.7c0.057-0.035,0.08-0.08,0.068-0.099
				c-0.013-0.022-0.039-0.039-0.106-0.053c-0.17-0.041-0.369-0.116-0.533-0.395c-0.312-0.523-0.082-1.215,0.771-1.723
				c0.917-0.542,1.956-0.229,2.428,0.565c0.645,1.086,0.008,2.111-1.105,2.77L17.201,84.193z M17.873,81.528
				c-0.094,0.053-0.119,0.127-0.076,0.195c0.039,0.061,0.113,0.077,0.206,0.02l0.247-0.146c0.065-0.035,0.081-0.104,0.04-0.173
				c-0.031-0.053-0.1-0.083-0.163-0.047L17.873,81.528z"/>
			<path d="M19.114,87.41c-1.083,0.645-2.186,0.407-2.675-0.414c-0.534-0.901-0.319-1.891,0.718-2.508
				c0.037-0.022,0.076-0.017,0.094,0.011l0.778,1.199c0.016,0.024,0.007,0.071-0.03,0.094l-0.334,0.226
				c-0.062,0.047-0.063,0.105-0.039,0.146c0.043,0.071,0.11,0.088,0.203,0.036l1.184-0.703c0.057-0.036,0.08-0.077,0.067-0.1
				c-0.014-0.019-0.04-0.035-0.107-0.052c-0.17-0.042-0.369-0.113-0.533-0.392c-0.312-0.523-0.08-1.216,0.773-1.723
				c0.915-0.54,1.954-0.231,2.426,0.565c0.646,1.083,0.01,2.111-1.105,2.77L19.114,87.41z M19.785,84.745
				c-0.093,0.052-0.117,0.124-0.075,0.192c0.038,0.069,0.112,0.08,0.206,0.027l0.247-0.148c0.063-0.041,0.08-0.107,0.039-0.177
				c-0.029-0.052-0.098-0.085-0.161-0.047L19.785,84.745z"/>
		</g>
		<line fill="none" stroke="#AEBE36" stroke-width="1.0402" x1="11.341" y1="63.029" x2="27.149" y2="89.62"/>
		<line fill="none" stroke="#AEBE36" stroke-width="1.0402" x1="65.048" y1="31.193" x2="80.857" y2="57.781"/>
	</g>
</g>
</svg>
